<svg version="1.2" xmlns="http://www.w3.org/2000/svg" viewBox="0 0 363 413" width="363" height="413">
	<title>package-svg</title>
	<style>
		.s0 { fill: #ffffff } 
	</style>
	<g id="Layer">
		<path id="Layer" fill-rule="evenodd" class="s0" d="m182 388.4c-11.6 0-23-3-33.1-8.8l-96.2-54.9c-10.2-5.9-18.6-14.3-24.5-24.4-5.9-10.2-9-21.7-9-33.4v-123.8c0-11.7 3.1-23.2 9-33.4 5.9-10.1 14.3-18.5 24.5-24.3l96.2-55c20.5-11.6 45.7-11.6 66.2 0l96.2 55c10.2 5.8 18.6 14.2 24.5 24.3 5.9 10.2 9 21.7 9 33.4v123.8c0 11.7-3.1 23.2-9 33.4-5.9 10.1-14.3 18.5-24.5 24.4l-96.2 54.9c-10.1 5.8-21.5 8.8-33.1 8.8zm0-352c-9 0-17.9 2.4-25.7 6.8l-96.2 55c-7.9 4.5-14.5 11-19.1 18.9-4.6 7.9-7 16.9-7 26v123.8c0 9.1 2.4 18.1 7 26 4.6 7.9 11.2 14.4 19.1 19l96.2 54.9c15.9 9 35.5 9 51.4 0l96.2-54.9c7.9-4.6 14.5-11.1 19.1-19 4.6-7.9 7-16.9 7-26v-123.8c0-9.1-2.4-18.1-7-26-4.6-7.9-11.2-14.4-19.1-18.9l-96.2-55c-7.8-4.4-16.7-6.8-25.7-6.8z"/>
		<path id="Layer" class="s0" d="m182 202c-12.4 0-24.5-3.5-35.1-10l-116.7-69.4c-3-2.3-3.9-6.5-2-9.7 1.9-3.3 6-4.6 9.4-3.1l117 69.5c8.2 5.1 17.7 7.8 27.3 7.8 9.7 0 19.1-2.7 27.3-7.8l117-69.5c3.5-1.6 7.6-0.3 9.5 3 1.9 3.3 1 7.5-2.1 9.7l-116.7 69.5c-10.4 6.6-22.5 10-34.9 10z"/>
		<path id="Layer" class="s0" d="m182 382.6c-4.1 0-7.4-3.3-7.4-7.4v-177.6c0-4.1 3.3-7.4 7.4-7.4 4.1 0 7.4 3.3 7.4 7.4v177.6c0 2-0.8 3.8-2.2 5.2-1.4 1.4-3.2 2.2-5.2 2.2z"/>
		<path id="Layer" fill-rule="evenodd" class="s0" d="m122.8 279c-2.8 0-5.3-1.6-6.6-4.1l-18.5-37-15.2 10.2c-2.3 1.4-5.1 1.5-7.4 0.3-2.5-1.2-4-3.7-4.1-6.4v-99.4c0-2.6 1.4-5.1 3.7-6.4 2.4-1.3 5.2-1.3 7.5 0.1l44.4 26.4c2.2 1.3 3.6 3.7 3.6 6.3v102.6c0.1 3.5-2.3 6.6-5.7 7.4q-0.9 0.1-1.7 0zm-22.2-59.2q1-0.1 1.9 0c2.1 0.6 3.7 2 4.7 3.8l8.2 16.6v-66.6l-29.6-17.6v72.5l10.7-7.4c1.2-0.8 2.6-1.3 4.1-1.3z"/>
		<path id="Layer" fill-rule="evenodd" class="s0" d="m119.5 174.4c-1.4 0-2.7-0.3-3.8-1l-38.5-22.7c-2.2-1.3-3.5-3.6-3.6-6.2 0-2.4 1.3-4.7 3.3-6.1l147.1-98.2c2.2-1.3 5.1-1.3 7.4 0l39.1 22.2c2.2 1.3 3.6 3.6 3.7 6.1 0.1 2.6-1.1 5.1-3.3 6.5l-147.9 98.4c-1.1 0.6-2.3 1-3.5 1zm-24.6-30.4l24.3 14.3 133.9-88.8-24.7-14.1z"/>
	</g>
</svg>