<svg width="20" height="22" viewBox="0 0 20 22" fill="none" xmlns="http://www.w3.org/2000/svg">
<path fill-rule="evenodd" clip-rule="evenodd" d="M6.5 0.75C6.5 0.335786 6.16421 0 5.75 0C5.33579 0 5 0.335786 5 0.75V1.53025C3.46409 1.65808 2.2462 2.19034 1.3879 3.11466C0.403634 4.17465 0 5.63503 0 7.25V15.75C0 17.365 0.403634 18.8254 1.3879 19.8853C2.38152 20.9554 3.85705 21.5 5.75 21.5H13.75C15.643 21.5 17.1185 20.9554 18.1121 19.8853C19.0964 18.8254 19.5 17.365 19.5 15.75V7.25C19.5 5.63503 19.0964 4.17465 18.1121 3.11466C17.2538 2.19034 16.0359 1.65808 14.5 1.53025V0.75C14.5 0.335786 14.1642 0 13.75 0C13.3358 0 13 0.335786 13 0.75V1.5H6.5V0.75ZM2.4871 4.13534C3.01412 3.56778 3.81502 3.15668 5 3.03628V3.75C5 4.16421 5.33579 4.5 5.75 4.5C6.16421 4.5 6.5 4.16421 6.5 3.75V3H13V3.75C13 4.16421 13.3358 4.5 13.75 4.5C14.1642 4.5 14.5 4.16421 14.5 3.75V3.03628C15.685 3.15668 16.4859 3.56778 17.0129 4.13534C17.6287 4.79852 17.9726 5.78465 17.9984 7.09H1.50157C1.52738 5.78465 1.87128 4.79852 2.4871 4.13534ZM1.5 8.59H18V15.75C18 17.135 17.6536 18.1746 17.0129 18.8647C16.3815 19.5446 15.357 20 13.75 20H5.75C4.14295 20 3.11848 19.5446 2.4871 18.8647C1.84637 18.1746 1.5 17.135 1.5 15.75V8.59ZM6.04401 11.45C5.49172 11.45 5.04401 11.8977 5.04401 12.45C5.04401 13.0023 5.49172 13.45 6.04401 13.45H6.05401C6.60629 13.45 7.05401 13.0023 7.05401 12.45C7.05401 11.8977 6.60629 11.45 6.05401 11.45H6.04401ZM9.74501 11.45C9.19272 11.45 8.74501 11.8977 8.74501 12.45C8.74501 13.0023 9.19272 13.45 9.74501 13.45H9.75501C10.3073 13.45 10.755 13.0023 10.755 12.45C10.755 11.8977 10.3073 11.45 9.75501 11.45H9.74501ZM13.445 11.45C12.8927 11.45 12.445 11.8977 12.445 12.45C12.445 13.0023 12.8927 13.45 13.445 13.45H13.454C14.0063 13.45 14.454 13.0023 14.454 12.45C14.454 11.8977 14.0063 11.45 13.454 11.45H13.445ZM6.04401 14.45C5.49172 14.45 5.04401 14.8977 5.04401 15.45C5.04401 16.0023 5.49172 16.45 6.04401 16.45H6.05401C6.60629 16.45 7.05401 16.0023 7.05401 15.45C7.05401 14.8977 6.60629 14.45 6.05401 14.45H6.04401ZM9.74501 14.45C9.19272 14.45 8.74501 14.8977 8.74501 15.45C8.74501 16.0023 9.19272 16.45 9.74501 16.45H9.75501C10.3073 16.45 10.755 16.0023 10.755 15.45C10.755 14.8977 10.3073 14.45 9.75501 14.45H9.74501ZM13.445 14.45C12.8927 14.45 12.445 14.8977 12.445 15.45C12.445 16.0023 12.8927 16.45 13.445 16.45H13.454C14.0063 16.45 14.454 16.0023 14.454 15.45C14.454 14.8977 14.0063 14.45 13.454 14.45H13.445Z" fill="#008DDC"/>
</svg>
