
<svg xmlns="http://www.w3.org/2000/svg" width="66.644" height="66.644" viewBox="0 0 66.644 66.644">
  <path id="Icon_awesome-whatsapp" data-name="Icon awesome-whatsapp" d="M56.662,11.934A33.035,33.035,0,0,0,4.686,51.787L0,68.894l17.509-4.6a32.924,32.924,0,0,0,15.783,4.016h.015c18.193,0,33.337-14.816,33.337-33.024a33.154,33.154,0,0,0-9.982-23.355ZM33.307,62.75a27.4,27.4,0,0,1-13.983-3.823l-1-.6L7.944,61.054l2.767-10.13-.655-1.041A27.5,27.5,0,1,1,61.065,35.289,27.755,27.755,0,0,1,33.307,62.75ZM48.361,42.192c-.818-.417-4.879-2.41-5.638-2.678s-1.309-.417-1.859.417-2.127,2.678-2.618,3.243-.967.625-1.785.208c-4.85-2.425-8.033-4.329-11.231-9.818-.848-1.458.848-1.354,2.425-4.507a1.529,1.529,0,0,0-.074-1.443c-.208-.417-1.859-4.478-2.544-6.129-.669-1.607-1.354-1.383-1.859-1.413-.476-.03-1.026-.03-1.577-.03a3.057,3.057,0,0,0-2.2,1.026,9.272,9.272,0,0,0-2.886,6.888c0,4.061,2.96,7.988,3.362,8.539s5.816,8.881,14.1,12.466c5.236,2.261,7.289,2.455,9.907,2.068,1.592-.238,4.879-1.993,5.564-3.927a6.9,6.9,0,0,0,.476-3.927C49.73,42.8,49.18,42.593,48.361,42.192Z" transform="translate(0 -2.25)" fill="#04724d"/>
</svg>
