<svg width="29" height="24" viewBox="0 0 29 24" fill="none" xmlns="http://www.w3.org/2000/svg">
<path fill-rule="evenodd" clip-rule="evenodd" d="M1.87409 1.87445C3.09311 0.655237 4.7977 0 6.75 0H18.25C20.2023 0 21.9069 0.655237 23.1259 1.87445C23.7438 2.49247 24.2169 3.23526 24.5331 4.07183C24.3634 4.02501 24.1846 4 24 4C23.4471 4 22.9466 4.22435 22.5846 4.58697C22.3662 4.08059 22.0692 3.64627 21.7116 3.28855C20.9181 2.49494 19.7477 2 18.25 2H6.75C5.2523 2 4.08189 2.49494 3.28841 3.28855C3.186 3.39098 3.08856 3.49969 2.99652 3.61457L1.87409 1.87445ZM2.9965 3.61459L2.99652 3.61457L13.1994 19.4322L13.1987 19.4317L2.9965 3.61459ZM2.9965 3.61459L1.87409 1.87445C0.655082 3.09365 0 4.79843 0 6.75091V13.652C0 15.6045 0.655082 17.3093 1.87409 18.5285C3.09311 19.7477 4.7977 20.4029 6.75 20.4029H11.0477L15.9128 23.6395L13.1987 19.4317L11.9039 18.5703C11.7398 18.4611 11.5471 18.4029 11.35 18.4029H6.75C5.2523 18.4029 4.08189 17.908 3.28841 17.1143C2.49492 16.3207 2 15.1501 2 13.652V6.75091C2 5.4462 2.3754 4.38983 2.9965 3.61459ZM13.1994 19.4322L17.0214 21.9748L17.0222 21.9754C17.0443 21.9901 17.0699 21.9986 17.0964 21.9998C17.1229 22.0011 17.1492 21.9952 17.1726 21.9827C17.1959 21.9701 17.2155 21.9515 17.2292 21.9287C17.2428 21.9059 17.25 21.8798 17.25 21.8532V21.8528V19.4029C17.25 18.8506 17.6977 18.4029 18.25 18.4029C19.7477 18.4029 20.9181 17.908 21.7116 17.1143C22.1371 16.6888 22.4767 16.1548 22.7002 15.5201C23.0498 15.8193 23.5038 16 24 16C24.241 16 24.472 15.9574 24.6859 15.8793C24.3794 16.9014 23.8529 17.8013 23.1259 18.5285C22.12 19.5345 20.7835 20.1565 19.25 20.3433V21.8524V21.8528C19.2501 22.2412 19.1448 22.6224 18.9453 22.9558C18.7457 23.2892 18.4594 23.5622 18.1168 23.7457C17.7742 23.9292 17.3883 24.0162 17.0001 23.9975C16.6123 23.9788 16.2368 23.8553 15.9136 23.64L13.1994 19.4322ZM24.75 6C24.75 5.58579 24.4142 5.25 24 5.25C23.5858 5.25 23.25 5.58579 23.25 6V9.25H20C19.5858 9.25 19.25 9.58579 19.25 10C19.25 10.4142 19.5858 10.75 20 10.75H23.25V14C23.25 14.4142 23.5858 14.75 24 14.75C24.4142 14.75 24.75 14.4142 24.75 14V10.75H28C28.4142 10.75 28.75 10.4142 28.75 10C28.75 9.58579 28.4142 9.25 28 9.25H24.75V6Z" fill="#04714D"/>
</svg>
