<svg id="Group_3397" data-name="Group 3397" xmlns="http://www.w3.org/2000/svg" width="107.343" height="88.439" viewBox="0 0 107.343 88.439">
  <g id="Group_3467" data-name="Group 3467">
    <g id="Group_2621" data-name="Group 2621">
      <g id="Group_2502" data-name="Group 2502">
        <g id="Group_2472" data-name="Group 2472" transform="translate(0)">
          <path id="Path_1841" data-name="Path 1841" d="M305.5,241.466a30.939,30.939,0,0,1-8.348,11.261,37.113,37.113,0,0,1-13.735,7.122c-16.537,4.839-37.122,1.217-49.159-1.788-2.441-.609-4.531-1.194-6.163-1.677a26.607,26.607,0,0,1-7.723-3.709l-.037-.026c-16.132-11.315-22.983-27.488-17.62-42.806.083-.239,15.9-48.885,53.4-32.819,16.463,7.053,10.407,13.046,28.655,20.542,8.531,3.5,19.821,9.756,22.917,24.5A33.56,33.56,0,0,1,305.5,241.466Z" transform="translate(-200.914 -173.771)" fill="#f8f8f8"/>
        </g>
      </g>
    </g>
    <g id="Group_2623" data-name="Group 2623" transform="translate(32.063 19.439)">
      <path id="Path_5792" data-name="Path 5792" d="M1505.292-233.3h4.125l.02-.079-4.236-1.583q0-4.461-.005-8.921c0-.185.067-.385-.076-.553l.086-.4c.21-.544.394-1.1.639-1.628.177-.38.084-.558-.3-.634l-.326-.064c-.146-.061-.29-.129-.438-.183q-3.229-1.189-6.458-2.375a5.86,5.86,0,0,1,1.4-4.679,5.616,5.616,0,0,1,6.076-1.8,5.537,5.537,0,0,1,4.1,4.6c.276,1.454.459,2.926.7,4.466.637-.558,1.225-1.086,1.827-1.6a18.754,18.754,0,0,1,2.486-2.025,5.866,5.866,0,0,1,8.637,4.15,5.936,5.936,0,0,1-1.867,5.328c-.168-.047-.339-.084-.5-.143-2.184-.8-4.369-1.588-6.545-2.4-.368-.138-.5-.088-.634.3-.82,2.309-1.686,4.6-2.509,6.908-.411,1.152-.89,2.281-1.215,3.464-.66-.11-.66-.11-.66.626q0,9.157,0,18.315,0,3.452.01,6.9h-4.318Q1505.292-220.3,1505.292-233.3Z" transform="translate(-1486.135 256.748)" fill="#eaf8ac"/>
      <path id="Path_5793" data-name="Path 5793" d="M1403.953-37.95c-.288-.244-.677-.237-1-.4a4.33,4.33,0,0,1-2.512-4.133q-.017-9.9,0-19.794a1.472,1.472,0,0,1,1.68-1.675q6.35,0,12.7.013,0,12.684,0,25.368c0,.207-.013.415-.019.622Z" transform="translate(-1400.054 87.391)" fill="#91b200"/>
      <path id="Path_5794" data-name="Path 5794" d="M1592.442-37.171q-.005-3.452-.01-6.9,0-9.158,0-18.315c0-.736,0-.736.66-.626.05.095.144.113.235.146q5.335,1.94,10.666,3.888a25.99,25.99,0,0,1,2.805,1.071q.008,3.19.015,6.38,0,4.845,0,9.691a4.623,4.623,0,0,1-1.085,3.182,4.382,4.382,0,0,1-2.34,1.391c-.074.018-.163,0-.2.1Z" transform="translate(-1568.966 86.611)" fill="#eaf8ac"/>
      <path id="Path_5795" data-name="Path 5795" d="M1519.893-37.852c.007-.207.019-.415.019-.622q0-12.684,0-25.368h4.391q0,12.995,0,25.99Z" transform="translate(-1505.15 87.292)" fill="#91b200"/>
      <path id="Path_5796" data-name="Path 5796" d="M1611.63-136.093a25.979,25.979,0,0,0-2.805-1.071q-5.327-1.96-10.666-3.888c-.091-.033-.185-.052-.235-.146.325-1.183.8-2.312,1.215-3.464.823-2.307,1.689-4.6,2.509-6.908.136-.384.265-.434.634-.3,2.176.817,4.361,1.608,6.545,2.4.163.06.335.1.5.143,1.371.591,2.789,1.059,4.193,1.561a4.607,4.607,0,0,1,3.079,2.965,4.358,4.358,0,0,1-.1,2.9q-.913,2.562-1.853,5.114a1.484,1.484,0,0,1-2.022.979A3.019,3.019,0,0,0,1611.63-136.093Z" transform="translate(-1573.799 164.794)" fill="#acacac"/>
      <path id="Path_5797" data-name="Path 5797" d="M1410.407-214q3.229,1.187,6.458,2.375c.149.055.292.122.438.184q0,1.163-.01,2.326l-.086.4c-.333.91-.669,1.82-1,2.732q-1.012,2.8-2.019,5.606c-2.07-.741-4.143-1.476-6.211-2.225q-4.183-1.514-8.36-3.043a1.543,1.543,0,0,1-1.08-2.309c.612-1.66,1.2-3.33,1.837-4.981a4.265,4.265,0,0,1,5.664-2.628C1407.5-215.058,1408.951-214.522,1410.407-214Z" transform="translate(-1398.222 221.028)" fill="#91b200"/>
      <path id="Path_5798" data-name="Path 5798" d="M1530.066-148.121q1.009-2.8,2.019-5.606c.33-.912.666-1.821,1-2.732.143.168.075.369.076.553q.008,4.46.005,8.921Z" transform="translate(-1514.1 168.773)" fill="#fbbd29"/>
      <path id="Path_5799" data-name="Path 5799" d="M1555.884-176.824q0-1.163.01-2.326l.327.064c.386.076.479.254.3.634C1556.278-177.925,1556.094-177.368,1555.884-176.824Z" transform="translate(-1536.813 188.736)" fill="#fb1a40"/>
      <path id="Path_5643" data-name="Path 5643" d="M1401.476-209.32a4.673,4.673,0,0,1-2.892-1.6,4.305,4.305,0,0,1-.968-2.378c-.022-.247-.027-.516-.027-.773v-19.458c0-1.413.479-1.9,1.879-1.9h21.079l.02-.1c-.185-.074-.368-.153-.556-.22l-21.474-7.821a1.5,1.5,0,0,1-1.243-1.726,1.5,1.5,0,0,1,.2-.539c.59-1.635,1.178-3.272,1.781-4.9a4.376,4.376,0,0,1,5.462-2.91,4.362,4.362,0,0,1,.418.151c1.289.457,2.573.931,3.863,1.4.148.054.3.1.494.173a6.14,6.14,0,0,1,.247-3.04,5.91,5.91,0,0,1,5.8-3.912,5.836,5.836,0,0,1,5.433,4.522c.289,1.437.464,2.894.691,4.344.025.158.052.314.092.565.183-.156.311-.259.435-.368,1.069-.934,2.1-1.912,3.21-2.793a5.828,5.828,0,0,1,7.957.684,5.87,5.87,0,0,1-.294,8.17c-.092.086-.175.18-.3.316l4.445,1.613a4.9,4.9,0,0,1,2.013,1.205,4.266,4.266,0,0,1,.963,4.569c-.617,1.781-1.274,3.546-1.931,5.312a1.432,1.432,0,0,1-1.769.988,1.447,1.447,0,0,1-.207-.076c-.316-.106-.632-.217-1.027-.356v16.25a4.322,4.322,0,0,1-2.512,4.179,8.769,8.769,0,0,1-1.373.432Zm-.988-23.185v18.584c0,1.173.538,1.7,1.729,1.7h9.834V-232.5Zm20.318,20.251a2.2,2.2,0,0,0,.247.03h9.879a1.4,1.4,0,0,0,1.444-1.36c0-.041,0-.081,0-.121v-17.176a.432.432,0,0,0-.341-.494c-.882-.306-1.751-.652-2.638-.946a3.739,3.739,0,0,0-1.126-.2c-2.307-.017-4.614,0-6.915,0h-.548Zm-4.6-34.116c-.148-.059-.247-.106-.353-.143l-6.3-2.3q-2.717-.988-5.446-1.976a1.4,1.4,0,0,0-1.889.581l-.02.039c-.573,1.393-1.062,2.82-1.6,4.272l13.63,4.959Zm6.2,8.4,13.623,4.962c.474-1.306.938-2.573,1.4-3.84a1.482,1.482,0,0,0-.545-2.023,1.48,1.48,0,0,0-.48-.175l-6.984-2.524-5.023-1.833Zm-4.554,5.433c-.807,0-1.563.027-2.316,0-.452-.022-.563.126-.563.566q.02,9.6,0,19.207c0,.17.017.341.027.511h2.855Zm1.158-15.934c-.284-1.83-.494-3.586-.844-5.315a2.914,2.914,0,0,0-3.035-2.193,2.988,2.988,0,0,0-2.731,2.339,2.963,2.963,0,0,0,2.018,3.5c1.311.494,2.63.958,3.951,1.435Zm4.263,1.586c1.815.632,3.517,1.326,5.275,1.805a2.806,2.806,0,0,0,3.211-1.67,2.978,2.978,0,0,0-.741-3.44,2.88,2.88,0,0,0-3.653-.247c-1.371,1.116-2.67,2.324-4.1,3.564Zm-4.332,1.482-1.976,5.451,2.717.988,1.976-5.446Z" transform="translate(-1397.274 258.878)" fill="#04724d"/>
    </g>
  </g>
</svg>
