<svg width="22" height="22" viewBox="0 0 22 22" fill="none" xmlns="http://www.w3.org/2000/svg">
<path fill-rule="evenodd" clip-rule="evenodd" d="M7.75 0C5.17603 0 3.17914 0.510201 1.84467 1.84467C1.67786 2.01148 1.52393 2.18864 1.38227 2.37598C0.390623 3.68738 0 5.49777 0 7.75V12.75V13.75C0 16.324 0.510201 18.3209 1.84467 19.6553C3.17914 20.9898 5.17603 21.5 7.75 21.5H9.75H12.75H13.75C16.324 21.5 18.3209 20.9898 19.6553 19.6553C20.9898 18.3209 21.5 16.324 21.5 13.75V11.75V7.75C21.5 5.17603 20.9898 3.17914 19.6553 1.84467C18.3209 0.510201 16.324 0 13.75 0H7.75ZM12.75 20H13.75C16.176 20 17.6791 19.5102 18.5947 18.5947C19.5102 17.6791 20 16.176 20 13.75V11.75V7.75C20 5.62723 19.625 4.21106 18.9179 3.27685C18.8169 3.14339 18.7091 3.01977 18.5947 2.90533C17.6791 1.9898 16.176 1.5 13.75 1.5H7.75C5.62723 1.5 4.21106 1.875 3.27685 2.58209C3.14339 2.6831 3.01977 2.79089 2.90533 2.90533C2.04702 3.76364 1.56289 5.13838 1.50572 7.30585C1.50191 7.45035 1.5 7.59837 1.5 7.75V13.75C1.5 16.176 1.9898 17.6791 2.90533 18.5947C3.82086 19.5102 5.32397 20 7.75 20H9.75H12.75ZM9.78265 5.00457C10.1943 5.05022 10.4911 5.42096 10.4454 5.83265L10.1874 8.16H11.8382L12.1146 5.66735C12.1602 5.25566 12.531 4.95892 12.9427 5.00457C13.3543 5.05022 13.6511 5.42096 13.6054 5.83265L13.3474 8.16H15.75C16.1642 8.16 16.5 8.49579 16.5 8.91C16.5 9.32421 16.1642 9.66 15.75 9.66H13.1811L12.997 11.32H15.22C15.6342 11.32 15.97 11.6558 15.97 12.07C15.97 12.4842 15.6342 12.82 15.22 12.82H12.8307L12.5554 15.3027C12.5098 15.7143 12.139 16.0111 11.7274 15.9654C11.3157 15.9198 11.0189 15.549 11.0646 15.1373L11.3215 12.82H9.6707L9.39543 15.3027C9.34978 15.7143 8.97904 16.0111 8.56735 15.9654C8.15566 15.9198 7.85892 15.549 7.90457 15.1373L8.16151 12.82H5.75C5.33579 12.82 5 12.4842 5 12.07C5 11.6558 5.33579 11.32 5.75 11.32H8.32782L8.51188 9.66H6.28C5.86579 9.66 5.53 9.32421 5.53 8.91C5.53 8.49579 5.86579 8.16 6.28 8.16H8.67819L8.95457 5.66735C9.00022 5.25566 9.37096 4.95892 9.78265 5.00457ZM11.6719 9.66H10.0211L9.83701 11.32H11.4878L11.6719 9.66Z" fill="#59595b"/>
</svg>
