<svg xmlns="http://www.w3.org/2000/svg" width="65.777" height="65.777" viewBox="0 0 65.777 65.777">
  <g id="Group_1487" data-name="Group 1487" transform="translate(-7.635)">
    <path id="Icon_awesome-telegram-plane" data-name="Icon awesome-telegram-plane" d="M38.9,7.506,33.011,35.267c-.444,1.959-1.6,2.447-3.248,1.524l-8.969-6.609-4.328,4.162a2.252,2.252,0,0,1-1.8.879l.644-9.135L31.932,11.068c.723-.644-.157-1-1.123-.357L10.258,23.651,1.41,20.882c-1.924-.6-1.959-1.924.4-2.847L36.416,4.7c1.6-.6,3,.357,2.482,2.8Z" transform="translate(18.792 12.002)" fill="#04724d"/>
    <g id="Path_1842" data-name="Path 1842" transform="translate(7.635)" fill="none">
      <path d="M32.888,0A32.888,32.888,0,1,1,0,32.888,32.888,32.888,0,0,1,32.888,0Z" stroke="none"/>
      <path d="M 32.88828659057617 4.999992370605469 C 29.12119293212891 4.999992370605469 25.46942138671875 5.736660003662109 22.03443145751953 7.189540863037109 C 18.71411514282227 8.593914031982422 15.73111343383789 10.60546112060547 13.16828536987305 13.16828536987305 C 10.60546112060547 15.73111343383789 8.593914031982422 18.71411514282227 7.189540863037109 22.03443145751953 C 5.736660003662109 25.46942138671875 4.999992370605469 29.12119293212891 4.999992370605469 32.88828659057617 C 4.999992370605469 36.65538024902344 5.736660003662109 40.3071403503418 7.189540863037109 43.74212646484375 C 8.593914031982422 47.06244659423828 10.60546112060547 50.04544830322266 13.16828536987305 52.60827255249023 C 15.73111343383789 55.17110061645508 18.71411514282227 57.18264770507812 22.03443145751953 58.58702087402344 C 25.46942138671875 60.03990173339844 29.12119293212891 60.77656555175781 32.88828659057617 60.77656555175781 C 36.65538024902344 60.77656555175781 40.3071403503418 60.03990173339844 43.74212646484375 58.58702087402344 C 47.06244659423828 57.18264770507812 50.04544830322266 55.17110061645508 52.60827255249023 52.60827255249023 C 55.17110061645508 50.04544830322266 57.18264770507812 47.06244659423828 58.58702087402344 43.74212646484375 C 60.03990173339844 40.3071403503418 60.77656555175781 36.65538024902344 60.77656555175781 32.88828659057617 C 60.77656555175781 29.12119293212891 60.03990173339844 25.46942138671875 58.58702087402344 22.03443145751953 C 57.18264770507812 18.71411514282227 55.17110061645508 15.73111343383789 52.60827255249023 13.16828536987305 C 50.04544830322266 10.60546112060547 47.06244659423828 8.593914031982422 43.74212646484375 7.189540863037109 C 40.3071403503418 5.736660003662109 36.65538024902344 4.999992370605469 32.88828659057617 4.999992370605469 M 32.88828659057617 -7.62939453125e-06 C 51.05197906494141 -7.62939453125e-06 65.77656555175781 14.72457885742188 65.77656555175781 32.88828659057617 C 65.77656555175781 51.05197906494141 51.05197906494141 65.77656555175781 32.88828659057617 65.77656555175781 C 14.72457885742188 65.77656555175781 -7.62939453125e-06 51.05197906494141 -7.62939453125e-06 32.88828659057617 C -7.62939453125e-06 14.72457885742188 14.72457885742188 -7.62939453125e-06 32.88828659057617 -7.62939453125e-06 Z" stroke="none" fill="#04724d"/>
    </g>
  </g>
</svg>
