<svg width="20" height="22" viewBox="0 0 20 22" fill="none" xmlns="http://www.w3.org/2000/svg">
<path d="M0.8 17.2727C0.8 18.1605 0.907499 18.7696 1.12315 19.2107C1.32399 19.6215 1.65062 19.9516 2.24292 20.2208C2.86136 20.502 3.75315 20.708 5.04377 20.8384C6.32671 20.968 7.94917 21.0182 10 21.0182C12.0508 21.0182 13.6733 20.968 14.9562 20.8384C16.2469 20.708 17.1386 20.502 17.7571 20.2208C18.3494 19.9516 18.676 19.6215 18.8769 19.2107C19.0925 18.7696 19.2 18.1605 19.2 17.2727C19.2 16.385 19.0925 15.7758 18.8769 15.3347C18.676 14.9239 18.3494 14.5938 17.7571 14.3246C17.1386 14.0435 16.2469 13.8374 14.9562 13.7071C13.6733 13.5775 12.0508 13.5273 10 13.5273C7.94917 13.5273 6.32671 13.5775 5.04377 13.7071C3.75315 13.8374 2.86136 14.0435 2.24292 14.3246C1.65062 14.5938 1.32399 14.9239 1.12315 15.3347C0.907499 15.7758 0.8 16.385 0.8 17.2727Z" stroke="#59595b" stroke-width="1.6" stroke-linecap="round" stroke-linejoin="round"/>
<circle cx="5.45455" cy="5.45455" r="4.65455" transform="matrix(-1 0 0 1 15.4531 0)" stroke="#59595b" stroke-width="1.6"/>
</svg>
