<svg width="25" height="25" viewBox="0 0 25 25" fill="none" xmlns="http://www.w3.org/2000/svg">
<path d="M24.9997 12.4562C25.0137 13.6145 24.5721 14.732 23.77 15.5682C23.0657 16.2688 22.6683 17.2201 22.6649 18.2133C22.645 19.3806 22.1733 20.4947 21.349 21.3216C20.5247 22.1485 19.4118 22.6239 18.2442 22.6479C17.7532 22.6467 17.2668 22.7423 16.8127 22.9292C16.3587 23.1161 15.9459 23.3906 15.5981 23.7371C14.7643 24.547 13.6475 25 12.485 25C11.3224 25 10.2057 24.547 9.37189 23.7371C9.04067 23.4063 8.6475 23.144 8.21483 22.9651C7.78216 22.7862 7.31849 22.6943 6.85028 22.6946C5.77667 22.6896 4.73974 22.3036 3.92439 21.6054C3.10903 20.9072 2.56827 19.9422 2.39857 18.8824C2.32074 18.4779 2.39856 18.0422 2.2896 17.6221C2.18335 16.8999 1.85092 16.2298 1.34008 15.7082C0.8688 15.2464 0.505745 14.6859 0.276978 14.0672C0.0482116 13.4484 -0.0405451 12.7866 0.0170462 12.1294C0.0752849 11.1391 0.483483 10.2016 1.16888 9.48422C1.91109 8.73894 2.33518 7.73494 2.35187 6.68344C2.38016 5.52341 2.85903 4.41991 3.68706 3.60669C4.5151 2.79347 5.62724 2.33437 6.78801 2.32663C7.77167 2.31191 8.7126 1.92234 9.41858 1.23746C10.2449 0.443473 11.3466 0 12.4928 0C13.6389 0 14.7406 0.443473 15.567 1.23746C16.3171 1.95898 17.3124 2.37027 18.3532 2.38888C19.5099 2.42862 20.6071 2.91095 21.4182 3.73623C22.2292 4.56151 22.6923 5.66671 22.7115 6.82348C22.7107 7.31197 22.8065 7.79577 22.9935 8.24708C23.1805 8.69839 23.455 9.1083 23.8011 9.45311C24.5658 10.2668 24.994 11.3397 24.9997 12.4562ZM12.4695 1.00403C12.0254 0.994448 11.584 1.07502 11.172 1.24084C10.76 1.40665 10.3859 1.65426 10.0724 1.96874C9.18952 2.84394 8.00019 3.34073 6.75689 3.35359C5.8582 3.35769 4.9975 3.71639 4.36202 4.35164C3.72654 4.98689 3.36772 5.84728 3.36362 6.74565C3.34928 7.98058 2.85857 9.16229 1.99385 10.0444C1.35976 10.6902 1.00452 11.559 1.00452 12.464C1.00452 13.3689 1.35976 14.2377 1.99385 14.8835C2.85527 15.7551 3.34611 16.926 3.36362 18.1511C3.35951 18.5992 3.44423 19.0436 3.61291 19.4588C3.7816 19.8739 4.03089 20.2515 4.3464 20.5698C4.6619 20.8881 5.03737 21.1407 5.45111 21.3132C5.86484 21.4856 6.30865 21.5743 6.75689 21.5743C7.97874 21.5876 9.14666 22.0792 10.0101 22.9436C10.6542 23.5811 11.524 23.9388 12.4305 23.9388C13.337 23.9388 14.2069 23.5811 14.851 22.9436C15.7392 22.0689 16.9352 21.5773 18.182 21.5743C18.5483 21.5627 18.9106 21.4944 19.256 21.372C19.9141 21.154 20.4887 20.738 20.9011 20.1809C21.3135 19.6238 21.5435 18.9529 21.5597 18.26C21.5514 17.6584 21.6627 17.0612 21.8871 16.5029C22.1116 15.9446 22.4447 15.4365 22.8672 15.008C23.5231 14.3515 23.8915 13.4617 23.8915 12.534C23.8915 11.6062 23.5231 10.7164 22.8672 10.0599C22.7583 9.93545 22.6493 9.82651 22.5559 9.70203C21.9112 8.88084 21.5605 7.86736 21.5597 6.82348C21.553 6.0081 21.2541 5.22212 20.7171 4.60829C20.1802 3.99447 19.4409 3.59345 18.6334 3.47805C18.2287 3.47805 17.824 3.47809 17.4193 3.36917C16.4728 3.24562 15.5955 2.8071 14.9288 2.12434C14.6086 1.7778 14.2214 1.49984 13.7907 1.30727C13.3599 1.1147 12.8946 1.01153 12.4228 1.00403H12.4695Z" fill="#FF0000"/>
<path d="M6.87448 15.5668C6.58384 15.6552 6.28189 15.6864 5.96862 15.6604C5.65758 15.6338 5.34593 15.5334 5.03369 15.3593L5.37812 14.3276C5.51718 14.3944 5.64751 14.4444 5.76912 14.4777C5.89006 14.5088 6.00252 14.528 6.10649 14.5352C6.21046 14.5423 6.30551 14.5401 6.39165 14.5285C6.48 14.5161 6.56079 14.4989 6.634 14.4766C6.66728 14.4665 6.70466 14.4539 6.74614 14.4389C6.78762 14.4239 6.82876 14.4077 6.86957 14.3905C6.9097 14.371 6.94838 14.3508 6.98562 14.3298C7.02286 14.3087 7.05609 14.2865 7.08533 14.2631C7.18586 14.1792 7.26199 14.1028 7.31371 14.0337C7.16737 13.8552 7.0109 13.6713 6.8443 13.482C6.67925 13.2898 6.51309 13.098 6.34581 12.9065C6.17787 12.7127 6.01171 12.5209 5.84733 12.3309C5.68295 12.1409 5.52793 11.9578 5.38226 11.7815L6.23061 11.0802L6.74528 11.709C6.91216 11.9152 7.11139 12.16 7.34295 12.4434C7.57385 12.7247 7.83786 13.0431 8.13499 13.3988C8.2046 13.4842 8.26716 13.5585 8.3227 13.6216C8.37823 13.6847 8.4356 13.7339 8.49481 13.7693C8.55623 13.8039 8.62172 13.824 8.69126 13.8295C8.76234 13.8322 8.8478 13.8183 8.94764 13.788C9.01863 13.7664 9.09035 13.7591 9.16278 13.7662C9.23521 13.7733 9.30214 13.7941 9.36357 13.8288C9.42654 13.8605 9.48222 13.9042 9.53062 13.9598C9.57902 14.0153 9.61434 14.0797 9.6366 14.1529C9.65885 14.2262 9.66533 14.2993 9.65604 14.3724C9.64676 14.4455 9.62479 14.5128 9.59014 14.5742C9.55838 14.6372 9.51438 14.6918 9.45813 14.7379C9.40189 14.7841 9.33826 14.818 9.26727 14.8396C9.13193 14.8807 9.00943 14.9083 8.89976 14.9222C8.79231 14.9355 8.69248 14.9379 8.60028 14.9296C8.51096 14.9228 8.4274 14.907 8.34957 14.8822C8.27329 14.8545 8.19898 14.8213 8.12666 14.7827C8.07889 14.8409 8.02746 14.8989 7.97237 14.9569C7.9166 15.0126 7.85085 15.0714 7.77511 15.1332C7.6575 15.2246 7.52442 15.3051 7.37585 15.3745C7.23019 15.4454 7.06306 15.5095 6.87448 15.5668Z" fill="#FF0000"/>
<path d="M12.127 15.1664L11.6833 16.0029L10.8588 15.5628L10.4233 16.3786L9.58245 15.9326L10.0262 15.0961L10.8507 15.5362L11.2862 14.7204L12.127 15.1664ZM8.41631 14.5238C8.39405 14.4506 8.38757 14.3775 8.39686 14.3044C8.40393 14.2319 8.42368 14.1653 8.45611 14.1046C8.48786 14.0416 8.53186 13.987 8.58811 13.9409C8.64436 13.8947 8.70909 13.8605 8.78231 13.8382L9.31145 13.6774C9.41129 13.647 9.51976 13.6092 9.63687 13.5639C9.75398 13.5186 9.86496 13.4692 9.96983 13.4155C10.0747 13.3618 10.1664 13.3048 10.2451 13.2446C10.3252 13.1814 10.3783 13.1168 10.4043 13.0508C10.4172 13.0056 10.4139 12.9509 10.3944 12.8865C10.3654 12.7911 10.3077 12.6851 10.2213 12.5683C10.1371 12.4509 10.0434 12.334 9.94018 12.2175C9.83693 12.1011 9.73314 11.9908 9.62882 11.8868C9.52671 11.7821 9.44322 11.6948 9.37834 11.6249L10.1852 10.8707C10.2904 10.9696 10.4001 11.0914 10.5143 11.236C10.6279 11.3784 10.7365 11.5284 10.8401 11.6859C10.9431 11.8412 11.0354 11.9974 11.117 12.1543C11.198 12.3091 11.257 12.4474 11.2941 12.5695C11.3622 12.7935 11.3846 13.0109 11.3614 13.2215C11.3316 13.4584 11.2566 13.6702 11.1365 13.857C11.0157 14.0416 10.8519 14.2004 10.6451 14.3336C10.584 14.3715 10.5051 14.4112 10.4087 14.4527C10.3122 14.4941 10.2136 14.5326 10.1129 14.568C10.0129 14.6057 9.91738 14.6384 9.82642 14.666C9.73613 14.6959 9.66547 14.7186 9.61444 14.7341L9.10194 14.8898C9.02872 14.9121 8.9559 14.9197 8.88347 14.9126C8.81103 14.9055 8.74411 14.8847 8.68268 14.85C8.62193 14.8176 8.56846 14.7733 8.52228 14.717C8.47389 14.6614 8.43856 14.597 8.41631 14.5238Z" fill="#FF0000"/>
<path d="M13.7065 13.4903C13.4159 13.5787 13.1139 13.6098 12.8007 13.5839C12.4896 13.5572 12.178 13.4569 11.8657 13.2827L12.2101 12.251C12.3492 12.3178 12.4795 12.3679 12.6012 12.4012C12.7221 12.4323 12.8345 12.4515 12.9385 12.4586C13.0425 12.4658 13.1375 12.4636 13.2237 12.4519C13.312 12.4396 13.3928 12.4224 13.466 12.4001C13.4993 12.39 13.5367 12.3774 13.5782 12.3624C13.6196 12.3473 13.6608 12.3312 13.7016 12.314C13.7417 12.2945 13.7804 12.2743 13.8176 12.2532C13.8549 12.2322 13.8881 12.21 13.9174 12.1866C14.0179 12.1027 14.094 12.0262 14.1457 11.9572C13.9994 11.7787 13.8429 11.5948 13.6763 11.4055C13.5113 11.2133 13.3451 11.0215 13.1778 10.83C13.0099 10.6362 12.8437 10.4444 12.6794 10.2544C12.515 10.0644 12.36 9.8813 12.2143 9.70503L13.0626 9.00366L13.5773 9.63248C13.7442 9.83866 13.9434 10.0835 14.175 10.3669C14.4059 10.6482 14.6699 10.9666 14.967 11.3222C15.0366 11.4077 15.0992 11.482 15.1547 11.5451C15.2103 11.6082 15.2676 11.6574 15.3268 11.6927C15.3883 11.7274 15.4537 11.7475 15.5233 11.753C15.5944 11.7556 15.6798 11.7418 15.7797 11.7114C15.8507 11.6899 15.9224 11.6826 15.9948 11.6897C16.0672 11.6967 16.1342 11.7176 16.1956 11.7522C16.2586 11.784 16.3142 11.8277 16.3626 11.8832C16.411 11.9388 16.4464 12.0032 16.4686 12.0764C16.4909 12.1496 16.4974 12.2228 16.4881 12.2959C16.4788 12.369 16.4568 12.4363 16.4222 12.4977C16.3904 12.5607 16.3464 12.6153 16.2902 12.6614C16.2339 12.7076 16.1703 12.7415 16.0993 12.7631C15.964 12.8042 15.8415 12.8317 15.7318 12.8457C15.6243 12.859 15.5245 12.8614 15.4323 12.8531C15.343 12.8463 15.2594 12.8305 15.1816 12.8057C15.1053 12.778 15.031 12.7448 14.9587 12.7062C14.9109 12.7644 14.8595 12.8224 14.8044 12.8803C14.7486 12.9361 14.6829 12.9948 14.6071 13.0566C14.4895 13.1481 14.3564 13.2286 14.2079 13.298C14.0622 13.3689 13.8951 13.433 13.7065 13.4903Z" fill="#FF0000"/>
<path d="M15.4047 12.3998C15.3825 12.3266 15.376 12.2534 15.3853 12.1803C15.3924 12.1079 15.4132 12.0409 15.4479 11.9795C15.4796 11.9165 15.5247 11.8616 15.5832 11.8148C15.6395 11.7686 15.7042 11.7344 15.7774 11.7121L16.4164 11.5179C16.7758 11.4087 17.0988 11.2875 17.3855 11.1543C17.6738 11.0182 17.9377 10.8738 18.1772 10.721C18.4168 10.5682 18.6385 10.4087 18.8425 10.2425C19.048 10.0734 19.2481 9.90232 19.4427 9.72926C19.279 9.73296 19.1112 9.72701 18.9392 9.71142C18.7694 9.69515 18.5993 9.68144 18.4286 9.67028C18.2602 9.65845 18.0945 9.6555 17.9315 9.66142C17.7679 9.66512 17.6117 9.68956 17.463 9.73474C17.361 9.76576 17.2696 9.82383 17.1888 9.90897C17.1081 9.99411 17.0385 10.0843 16.9802 10.1796C16.9219 10.2749 16.8755 10.3653 16.841 10.4509C16.8079 10.5337 16.7885 10.5893 16.7826 10.6177L15.8631 10.3555C15.9023 10.1813 15.9579 10.0056 16.0301 9.82853C16.1023 9.65147 16.1907 9.48768 16.2952 9.33716C16.4013 9.18375 16.5241 9.04949 16.6636 8.93438C16.8053 8.81859 16.9649 8.73373 17.1424 8.67978C17.2733 8.64 17.4086 8.61463 17.5483 8.60369C17.6872 8.59053 17.8278 8.58658 17.97 8.59184C18.1144 8.59643 18.2586 8.60834 18.4026 8.62759C18.5459 8.64462 18.6884 8.6631 18.8302 8.68302C18.9669 8.70207 19.1024 8.72146 19.2369 8.74119C19.3729 8.75802 19.5112 8.77051 19.6518 8.77867C19.7917 8.7846 19.9338 8.78143 20.0779 8.76913C20.222 8.75684 20.3698 8.72888 20.5213 8.68524L20.7487 9.73221L20.3449 10.1021C20.1802 10.254 20.0176 10.4088 19.8571 10.5667C19.696 10.7223 19.5298 10.877 19.3584 11.0309C19.1886 11.1819 19.0111 11.3315 18.826 11.4799C18.6424 11.6254 18.4446 11.7642 18.2328 11.8965C18.0203 12.0265 17.7907 12.1484 17.5441 12.2621C17.2982 12.3781 17.0289 12.4805 16.736 12.5695L16.097 12.7638C16.0238 12.786 15.9507 12.7925 15.8776 12.7832C15.8029 12.7768 15.7352 12.7574 15.6744 12.725C15.6115 12.6932 15.5569 12.6492 15.5107 12.593C15.4623 12.5374 15.427 12.473 15.4047 12.3998ZM18.7072 12.2613L19.6705 12.7755L19.1563 13.7389L18.1929 13.2246L18.7072 12.2613Z" fill="#FF0000"/>
</svg>
